<svg width="24" height="24" viewBox="0 0 24 24" fill="none" xmlns="http://www.w3.org/2000/svg">
<path d="M4.98487 7.19704C6.19327 7.19704 7.17287 6.21744 7.17287 5.00904C7.17287 3.80065 6.19327 2.82104 4.98487 2.82104C3.77648 2.82104 2.79688 3.80065 2.79688 5.00904C2.79688 6.21744 3.77648 7.19704 4.98487 7.19704Z" fill="black"/>
<path d="M9.23575 8.85493V20.9939H13.0047V14.9909C13.0047 13.4069 13.3027 11.8729 15.2667 11.8729C17.2037 11.8729 17.2277 13.6839 17.2277 15.0909V20.9949H20.9988V14.3379C20.9988 11.0679 20.2948 8.55493 16.4728 8.55493C14.6378 8.55493 13.4078 9.56193 12.9047 10.5149H12.8537V8.85493H9.23575ZM3.09375 8.85493H6.86875V20.9939H3.09375V8.85493Z" fill="black"/>
</svg>
